<mxfile host="app.diagrams.net" modified="2021-03-02T10:37:14.545Z" agent="5.0 (Windows NT 6.1; WOW64) AppleWebKit/537.36 (KHTML, like Gecko) Chrome/70.0.3538.25 Safari/537.36 Core/1.70.3861.400 QQBrowser/10.7.4313.400" etag="T4hGOH9GPi_UxvplLc6J" version="14.4.3" type="github">
  <diagram id="U19C1owaO59zhiJw0SZX" name="Page-1">
    <mxGraphModel dx="1351" dy="618" grid="1" gridSize="10" guides="1" tooltips="1" connect="1" arrows="1" fold="1" page="1" pageScale="1" pageWidth="827" pageHeight="1169" math="0" shadow="0">
      <root>
        <mxCell id="0" />
        <mxCell id="1" parent="0" />
        <mxCell id="jVLhkkgNdd034iKlA2Vm-1" value="array[]" style="rounded=0;whiteSpace=wrap;html=1;" vertex="1" parent="1">
          <mxGeometry x="310" y="170" width="120" height="30" as="geometry" />
        </mxCell>
        <mxCell id="jVLhkkgNdd034iKlA2Vm-2" value="slab_caches" style="text;html=1;strokeColor=none;fillColor=none;align=center;verticalAlign=middle;whiteSpace=wrap;rounded=0;" vertex="1" parent="1">
          <mxGeometry x="200" y="150" width="70" height="20" as="geometry" />
        </mxCell>
        <mxCell id="jVLhkkgNdd034iKlA2Vm-6" value="..." style="rounded=0;whiteSpace=wrap;html=1;" vertex="1" parent="1">
          <mxGeometry x="310" y="200" width="120" height="30" as="geometry" />
        </mxCell>
        <mxCell id="jVLhkkgNdd034iKlA2Vm-8" value="list" style="rounded=0;whiteSpace=wrap;html=1;" vertex="1" parent="1">
          <mxGeometry x="310" y="230" width="120" height="30" as="geometry" />
        </mxCell>
        <mxCell id="jVLhkkgNdd034iKlA2Vm-10" value="node" style="rounded=0;whiteSpace=wrap;html=1;" vertex="1" parent="1">
          <mxGeometry x="310" y="290" width="120" height="30" as="geometry" />
        </mxCell>
        <mxCell id="jVLhkkgNdd034iKlA2Vm-11" value="..." style="rounded=0;whiteSpace=wrap;html=1;" vertex="1" parent="1">
          <mxGeometry x="310" y="260" width="120" height="30" as="geometry" />
        </mxCell>
        <mxCell id="jVLhkkgNdd034iKlA2Vm-15" value="kmem_cache" style="text;html=1;strokeColor=none;fillColor=none;align=center;verticalAlign=middle;whiteSpace=wrap;rounded=0;" vertex="1" parent="1">
          <mxGeometry x="330" y="150" width="70" height="20" as="geometry" />
        </mxCell>
        <mxCell id="jVLhkkgNdd034iKlA2Vm-26" value="array[]" style="rounded=0;whiteSpace=wrap;html=1;" vertex="1" parent="1">
          <mxGeometry x="310" y="360" width="120" height="30" as="geometry" />
        </mxCell>
        <mxCell id="jVLhkkgNdd034iKlA2Vm-27" value="..." style="rounded=0;whiteSpace=wrap;html=1;" vertex="1" parent="1">
          <mxGeometry x="310" y="390" width="120" height="30" as="geometry" />
        </mxCell>
        <mxCell id="jVLhkkgNdd034iKlA2Vm-28" value="list" style="rounded=0;whiteSpace=wrap;html=1;" vertex="1" parent="1">
          <mxGeometry x="310" y="420" width="120" height="30" as="geometry" />
        </mxCell>
        <mxCell id="jVLhkkgNdd034iKlA2Vm-29" value="node" style="rounded=0;whiteSpace=wrap;html=1;" vertex="1" parent="1">
          <mxGeometry x="310" y="480" width="120" height="30" as="geometry" />
        </mxCell>
        <mxCell id="jVLhkkgNdd034iKlA2Vm-30" value="..." style="rounded=0;whiteSpace=wrap;html=1;" vertex="1" parent="1">
          <mxGeometry x="310" y="450" width="120" height="30" as="geometry" />
        </mxCell>
        <mxCell id="jVLhkkgNdd034iKlA2Vm-31" value="kmem_cache" style="text;html=1;strokeColor=none;fillColor=none;align=center;verticalAlign=middle;whiteSpace=wrap;rounded=0;" vertex="1" parent="1">
          <mxGeometry x="330" y="340" width="70" height="20" as="geometry" />
        </mxCell>
        <mxCell id="jVLhkkgNdd034iKlA2Vm-32" value="&lt;b&gt;......&lt;/b&gt;" style="text;html=1;strokeColor=none;fillColor=none;align=center;verticalAlign=middle;whiteSpace=wrap;rounded=0;" vertex="1" parent="1">
          <mxGeometry x="330" y="520" width="70" height="10" as="geometry" />
        </mxCell>
        <mxCell id="jVLhkkgNdd034iKlA2Vm-33" value="array[]" style="rounded=0;whiteSpace=wrap;html=1;" vertex="1" parent="1">
          <mxGeometry x="310" y="555" width="120" height="30" as="geometry" />
        </mxCell>
        <mxCell id="jVLhkkgNdd034iKlA2Vm-34" value="..." style="rounded=0;whiteSpace=wrap;html=1;" vertex="1" parent="1">
          <mxGeometry x="310" y="585" width="120" height="30" as="geometry" />
        </mxCell>
        <mxCell id="jVLhkkgNdd034iKlA2Vm-35" value="list" style="rounded=0;whiteSpace=wrap;html=1;" vertex="1" parent="1">
          <mxGeometry x="310" y="615" width="120" height="30" as="geometry" />
        </mxCell>
        <mxCell id="jVLhkkgNdd034iKlA2Vm-36" value="node" style="rounded=0;whiteSpace=wrap;html=1;" vertex="1" parent="1">
          <mxGeometry x="310" y="675" width="120" height="30" as="geometry" />
        </mxCell>
        <mxCell id="jVLhkkgNdd034iKlA2Vm-37" value="..." style="rounded=0;whiteSpace=wrap;html=1;" vertex="1" parent="1">
          <mxGeometry x="310" y="645" width="120" height="30" as="geometry" />
        </mxCell>
        <mxCell id="jVLhkkgNdd034iKlA2Vm-38" value="kmem_cache" style="text;html=1;strokeColor=none;fillColor=none;align=center;verticalAlign=middle;whiteSpace=wrap;rounded=0;" vertex="1" parent="1">
          <mxGeometry x="330" y="535" width="70" height="20" as="geometry" />
        </mxCell>
        <mxCell id="jVLhkkgNdd034iKlA2Vm-42" value="" style="edgeStyle=elbowEdgeStyle;elbow=vertical;endArrow=classic;html=1;exitX=0.5;exitY=1;exitDx=0;exitDy=0;" edge="1" parent="1">
          <mxGeometry width="50" height="50" relative="1" as="geometry">
            <mxPoint x="251" y="170" as="sourcePoint" />
            <mxPoint x="296" y="240" as="targetPoint" />
            <Array as="points">
              <mxPoint x="296" y="240" />
            </Array>
          </mxGeometry>
        </mxCell>
        <mxCell id="jVLhkkgNdd034iKlA2Vm-43" value="" style="edgeStyle=segmentEdgeStyle;endArrow=classic;html=1;" edge="1" parent="1">
          <mxGeometry width="50" height="50" relative="1" as="geometry">
            <mxPoint x="299" y="250" as="sourcePoint" />
            <mxPoint x="309" y="430" as="targetPoint" />
            <Array as="points">
              <mxPoint x="249" y="250" />
              <mxPoint x="249" y="430" />
            </Array>
          </mxGeometry>
        </mxCell>
        <mxCell id="jVLhkkgNdd034iKlA2Vm-46" value="slabs_partial" style="rounded=0;whiteSpace=wrap;html=1;" vertex="1" parent="1">
          <mxGeometry x="540" y="170" width="120" height="30" as="geometry" />
        </mxCell>
        <mxCell id="jVLhkkgNdd034iKlA2Vm-47" value="kmem_cache_node" style="text;html=1;strokeColor=none;fillColor=none;align=center;verticalAlign=middle;whiteSpace=wrap;rounded=0;" vertex="1" parent="1">
          <mxGeometry x="545" y="150" width="110" height="20" as="geometry" />
        </mxCell>
        <mxCell id="jVLhkkgNdd034iKlA2Vm-48" value="slabs_full" style="rounded=0;whiteSpace=wrap;html=1;" vertex="1" parent="1">
          <mxGeometry x="540" y="200" width="120" height="30" as="geometry" />
        </mxCell>
        <mxCell id="jVLhkkgNdd034iKlA2Vm-49" value="slabs_free" style="rounded=0;whiteSpace=wrap;html=1;" vertex="1" parent="1">
          <mxGeometry x="540" y="230" width="120" height="30" as="geometry" />
        </mxCell>
        <mxCell id="jVLhkkgNdd034iKlA2Vm-50" value="" style="edgeStyle=elbowEdgeStyle;elbow=horizontal;endArrow=classic;html=1;exitX=1;exitY=0.5;exitDx=0;exitDy=0;entryX=0;entryY=0.5;entryDx=0;entryDy=0;" edge="1" parent="1" source="jVLhkkgNdd034iKlA2Vm-10" target="jVLhkkgNdd034iKlA2Vm-46">
          <mxGeometry width="50" height="50" relative="1" as="geometry">
            <mxPoint x="580" y="360" as="sourcePoint" />
            <mxPoint x="630" y="310" as="targetPoint" />
            <Array as="points">
              <mxPoint x="510" y="250" />
            </Array>
          </mxGeometry>
        </mxCell>
        <mxCell id="jVLhkkgNdd034iKlA2Vm-51" value="slabs_partial" style="rounded=0;whiteSpace=wrap;html=1;" vertex="1" parent="1">
          <mxGeometry x="544" y="290" width="120" height="30" as="geometry" />
        </mxCell>
        <mxCell id="jVLhkkgNdd034iKlA2Vm-52" value="kmem_cache_node" style="text;html=1;strokeColor=none;fillColor=none;align=center;verticalAlign=middle;whiteSpace=wrap;rounded=0;" vertex="1" parent="1">
          <mxGeometry x="549" y="270" width="110" height="20" as="geometry" />
        </mxCell>
        <mxCell id="jVLhkkgNdd034iKlA2Vm-53" value="slabs_full" style="rounded=0;whiteSpace=wrap;html=1;" vertex="1" parent="1">
          <mxGeometry x="544" y="320" width="120" height="30" as="geometry" />
        </mxCell>
        <mxCell id="jVLhkkgNdd034iKlA2Vm-54" value="slabs_free" style="rounded=0;whiteSpace=wrap;html=1;" vertex="1" parent="1">
          <mxGeometry x="544" y="350" width="120" height="30" as="geometry" />
        </mxCell>
        <mxCell id="jVLhkkgNdd034iKlA2Vm-55" value="&lt;b&gt;......&lt;/b&gt;" style="text;html=1;strokeColor=none;fillColor=none;align=center;verticalAlign=middle;whiteSpace=wrap;rounded=0;" vertex="1" parent="1">
          <mxGeometry x="564" y="390" width="70" height="10" as="geometry" />
        </mxCell>
        <mxCell id="jVLhkkgNdd034iKlA2Vm-56" value="" style="edgeStyle=elbowEdgeStyle;elbow=horizontal;endArrow=classic;html=1;exitX=1;exitY=0.5;exitDx=0;exitDy=0;entryX=0;entryY=0.5;entryDx=0;entryDy=0;" edge="1" parent="1" source="jVLhkkgNdd034iKlA2Vm-10" target="jVLhkkgNdd034iKlA2Vm-51">
          <mxGeometry width="50" height="50" relative="1" as="geometry">
            <mxPoint x="510" y="500" as="sourcePoint" />
            <mxPoint x="560" y="450" as="targetPoint" />
          </mxGeometry>
        </mxCell>
        <mxCell id="jVLhkkgNdd034iKlA2Vm-57" value="slabs_partial" style="rounded=0;whiteSpace=wrap;html=1;" vertex="1" parent="1">
          <mxGeometry x="545" y="420" width="120" height="30" as="geometry" />
        </mxCell>
        <mxCell id="jVLhkkgNdd034iKlA2Vm-58" value="kmem_cache_node" style="text;html=1;strokeColor=none;fillColor=none;align=center;verticalAlign=middle;whiteSpace=wrap;rounded=0;" vertex="1" parent="1">
          <mxGeometry x="550" y="400" width="110" height="20" as="geometry" />
        </mxCell>
        <mxCell id="jVLhkkgNdd034iKlA2Vm-59" value="slabs_full" style="rounded=0;whiteSpace=wrap;html=1;" vertex="1" parent="1">
          <mxGeometry x="545" y="450" width="120" height="30" as="geometry" />
        </mxCell>
        <mxCell id="jVLhkkgNdd034iKlA2Vm-60" value="slabs_free" style="rounded=0;whiteSpace=wrap;html=1;" vertex="1" parent="1">
          <mxGeometry x="545" y="480" width="120" height="30" as="geometry" />
        </mxCell>
        <mxCell id="jVLhkkgNdd034iKlA2Vm-62" value="" style="edgeStyle=elbowEdgeStyle;elbow=horizontal;endArrow=classic;html=1;exitX=1;exitY=0.5;exitDx=0;exitDy=0;entryX=0;entryY=0.5;entryDx=0;entryDy=0;" edge="1" parent="1" source="jVLhkkgNdd034iKlA2Vm-10" target="jVLhkkgNdd034iKlA2Vm-57">
          <mxGeometry width="50" height="50" relative="1" as="geometry">
            <mxPoint x="450" y="315" as="sourcePoint" />
            <mxPoint x="505" y="345" as="targetPoint" />
            <Array as="points">
              <mxPoint x="510" y="370" />
            </Array>
          </mxGeometry>
        </mxCell>
        <mxCell id="jVLhkkgNdd034iKlA2Vm-63" value="MAX_NUMNODES" style="edgeLabel;html=1;align=center;verticalAlign=middle;resizable=0;points=[];" vertex="1" connectable="0" parent="jVLhkkgNdd034iKlA2Vm-62">
          <mxGeometry x="-0.7457" relative="1" as="geometry">
            <mxPoint as="offset" />
          </mxGeometry>
        </mxCell>
        <mxCell id="jVLhkkgNdd034iKlA2Vm-64" value="" style="edgeStyle=segmentEdgeStyle;endArrow=classic;html=1;" edge="1" parent="1">
          <mxGeometry width="50" height="50" relative="1" as="geometry">
            <mxPoint x="296" y="440" as="sourcePoint" />
            <mxPoint x="286" y="620" as="targetPoint" />
            <Array as="points">
              <mxPoint x="246" y="440" />
              <mxPoint x="246" y="620" />
            </Array>
          </mxGeometry>
        </mxCell>
        <mxCell id="jVLhkkgNdd034iKlA2Vm-70" style="edgeStyle=orthogonalEdgeStyle;rounded=0;orthogonalLoop=1;jettySize=auto;html=1;entryX=0;entryY=0.5;entryDx=0;entryDy=0;" edge="1" parent="1" source="jVLhkkgNdd034iKlA2Vm-66" target="jVLhkkgNdd034iKlA2Vm-68">
          <mxGeometry relative="1" as="geometry" />
        </mxCell>
        <mxCell id="jVLhkkgNdd034iKlA2Vm-66" value="slab" style="rounded=0;whiteSpace=wrap;html=1;" vertex="1" parent="1">
          <mxGeometry x="700" y="170" width="50" height="20" as="geometry" />
        </mxCell>
        <mxCell id="jVLhkkgNdd034iKlA2Vm-79" style="edgeStyle=orthogonalEdgeStyle;rounded=0;orthogonalLoop=1;jettySize=auto;html=1;" edge="1" parent="1" source="jVLhkkgNdd034iKlA2Vm-67">
          <mxGeometry relative="1" as="geometry">
            <mxPoint x="940" y="180" as="targetPoint" />
          </mxGeometry>
        </mxCell>
        <mxCell id="jVLhkkgNdd034iKlA2Vm-67" value="slab" style="rounded=0;whiteSpace=wrap;html=1;" vertex="1" parent="1">
          <mxGeometry x="860" y="170" width="50" height="20" as="geometry" />
        </mxCell>
        <mxCell id="jVLhkkgNdd034iKlA2Vm-71" style="edgeStyle=orthogonalEdgeStyle;rounded=0;orthogonalLoop=1;jettySize=auto;html=1;entryX=0;entryY=0.5;entryDx=0;entryDy=0;" edge="1" parent="1" source="jVLhkkgNdd034iKlA2Vm-68" target="jVLhkkgNdd034iKlA2Vm-67">
          <mxGeometry relative="1" as="geometry" />
        </mxCell>
        <mxCell id="jVLhkkgNdd034iKlA2Vm-68" value="slab" style="rounded=0;whiteSpace=wrap;html=1;" vertex="1" parent="1">
          <mxGeometry x="777" y="170" width="50" height="20" as="geometry" />
        </mxCell>
        <mxCell id="jVLhkkgNdd034iKlA2Vm-80" style="edgeStyle=orthogonalEdgeStyle;rounded=0;orthogonalLoop=1;jettySize=auto;html=1;entryX=0;entryY=0.5;entryDx=0;entryDy=0;" edge="1" parent="1" source="jVLhkkgNdd034iKlA2Vm-81" target="jVLhkkgNdd034iKlA2Vm-85">
          <mxGeometry relative="1" as="geometry" />
        </mxCell>
        <mxCell id="jVLhkkgNdd034iKlA2Vm-81" value="slab" style="rounded=0;whiteSpace=wrap;html=1;" vertex="1" parent="1">
          <mxGeometry x="700" y="205" width="50" height="20" as="geometry" />
        </mxCell>
        <mxCell id="jVLhkkgNdd034iKlA2Vm-82" style="edgeStyle=orthogonalEdgeStyle;rounded=0;orthogonalLoop=1;jettySize=auto;html=1;" edge="1" parent="1" source="jVLhkkgNdd034iKlA2Vm-83">
          <mxGeometry relative="1" as="geometry">
            <mxPoint x="940" y="215" as="targetPoint" />
          </mxGeometry>
        </mxCell>
        <mxCell id="jVLhkkgNdd034iKlA2Vm-83" value="slab" style="rounded=0;whiteSpace=wrap;html=1;" vertex="1" parent="1">
          <mxGeometry x="860" y="205" width="50" height="20" as="geometry" />
        </mxCell>
        <mxCell id="jVLhkkgNdd034iKlA2Vm-84" style="edgeStyle=orthogonalEdgeStyle;rounded=0;orthogonalLoop=1;jettySize=auto;html=1;entryX=0;entryY=0.5;entryDx=0;entryDy=0;" edge="1" parent="1" source="jVLhkkgNdd034iKlA2Vm-85" target="jVLhkkgNdd034iKlA2Vm-83">
          <mxGeometry relative="1" as="geometry" />
        </mxCell>
        <mxCell id="jVLhkkgNdd034iKlA2Vm-85" value="slab" style="rounded=0;whiteSpace=wrap;html=1;" vertex="1" parent="1">
          <mxGeometry x="777" y="205" width="50" height="20" as="geometry" />
        </mxCell>
        <mxCell id="jVLhkkgNdd034iKlA2Vm-86" style="edgeStyle=orthogonalEdgeStyle;rounded=0;orthogonalLoop=1;jettySize=auto;html=1;entryX=0;entryY=0.5;entryDx=0;entryDy=0;" edge="1" parent="1" source="jVLhkkgNdd034iKlA2Vm-87" target="jVLhkkgNdd034iKlA2Vm-91">
          <mxGeometry relative="1" as="geometry" />
        </mxCell>
        <mxCell id="jVLhkkgNdd034iKlA2Vm-87" value="slab" style="rounded=0;whiteSpace=wrap;html=1;" vertex="1" parent="1">
          <mxGeometry x="700" y="240" width="50" height="20" as="geometry" />
        </mxCell>
        <mxCell id="jVLhkkgNdd034iKlA2Vm-88" style="edgeStyle=orthogonalEdgeStyle;rounded=0;orthogonalLoop=1;jettySize=auto;html=1;" edge="1" parent="1" source="jVLhkkgNdd034iKlA2Vm-89">
          <mxGeometry relative="1" as="geometry">
            <mxPoint x="940" y="250" as="targetPoint" />
          </mxGeometry>
        </mxCell>
        <mxCell id="jVLhkkgNdd034iKlA2Vm-89" value="slab" style="rounded=0;whiteSpace=wrap;html=1;" vertex="1" parent="1">
          <mxGeometry x="860" y="240" width="50" height="20" as="geometry" />
        </mxCell>
        <mxCell id="jVLhkkgNdd034iKlA2Vm-90" style="edgeStyle=orthogonalEdgeStyle;rounded=0;orthogonalLoop=1;jettySize=auto;html=1;entryX=0;entryY=0.5;entryDx=0;entryDy=0;" edge="1" parent="1" source="jVLhkkgNdd034iKlA2Vm-91" target="jVLhkkgNdd034iKlA2Vm-89">
          <mxGeometry relative="1" as="geometry" />
        </mxCell>
        <mxCell id="jVLhkkgNdd034iKlA2Vm-91" value="slab" style="rounded=0;whiteSpace=wrap;html=1;" vertex="1" parent="1">
          <mxGeometry x="777" y="240" width="50" height="20" as="geometry" />
        </mxCell>
      </root>
    </mxGraphModel>
  </diagram>
</mxfile>
